<svg width="100" height="100" viewBox="0 0 100 100" xmlns="http://www.w3.org/2000/svg">
  <path d="M 20 40 A 20 20 0 1 1 80 40" fill="none" stroke="#5c5c5c" stroke-width="6px" />
  <line x1="20" y1="40" x2="20" y2="80" stroke="#5c5c5c" stroke-width="6px"/>
  <line x1="80" y1="40" x2="80" y2="80" stroke="#5c5c5c" stroke-width="6px" />
  <path d="M 20 80 A 20 20 0 0 1 0 100" fill="none" stroke="#5c5c5c" stroke-width="6px" />
  <path d="M 80 80 A 20 20 0 0 0 100 100" fill="none" stroke="#5c5c5c" stroke-width="6px" />
  <circle cx="40" cy="40" r="6" fill="#5c5c5c" />
  <circle cx="60" cy="40" r="6" fill="#5c5c5c" />

  <path d="M 20 40 A 20 20 0 1 1 80 40" fill="none" stroke="#f6f7eb" stroke-width="4px" />
  <line x1="20" y1="40" x2="20" y2="80" stroke="#f6f7eb" stroke-width="4px"/>
  <line x1="80" y1="40" x2="80" y2="80" stroke="#f6f7eb" stroke-width="4px" />
  <path d="M 20 80 A 20 20 0 0 1 0 100" fill="none" stroke="#f6f7eb" stroke-width="4px" />
  <path d="M 80 80 A 20 20 0 0 0 100 100" fill="none" stroke="#f6f7eb" stroke-width="4px" />
  <circle cx="40" cy="40" r="5" fill="#f6f7eb" />
  <circle cx="60" cy="40" r="5" fill="#f6f7eb" />
</svg>
